<?xml version="1.0" encoding="UTF-8"?>
<svg version="1.1" xmlns="http://www.w3.org/2000/svg" width="256" height="256">
<path d="M0 0 C10.80986227 9.23268565 18.27689304 21.09885822 20.625 35.1875 C24.13279747 36.24499777 27.47519673 36.35614514 31.125 36.5 C44.98114709 37.46203301 56.66059134 42.73972103 66.375 52.75 C75.51227121 63.44849561 78.80435532 74.37412032 78.8125 88.1875 C78.82474609 89.280625 78.83699219 90.37375 78.84960938 91.5 C78.85154297 92.551875 78.85347656 93.60375 78.85546875 94.6875 C78.85957764 95.6465625 78.86368652 96.605625 78.86791992 97.59375 C78.625 100.1875 78.625 100.1875 76.625 104.1875 C-7.195 104.1875 -91.015 104.1875 -177.375 104.1875 C-177.375 78.35613479 -177.375 78.35613479 -166.9375 67.125 C-165.78220617 66.10803403 -164.59446014 65.12656367 -163.375 64.1875 C-162.77042969 63.71957031 -162.16585937 63.25164062 -161.54296875 62.76953125 C-155.68233174 58.69931288 -148.54169703 56.1875 -141.375 56.1875 C-141.40980469 55.49785156 -141.44460937 54.80820313 -141.48046875 54.09765625 C-141.74428304 44.93953155 -140.63110157 38.53301132 -134.6875 31.375 C-129.52845044 25.93092008 -123.6372207 22.66010013 -116.11328125 21.984375 C-109.246729 21.851688 -103.52588267 23.11205867 -97.375 26.1875 C-97.0346875 25.43726563 -96.694375 24.68703125 -96.34375 23.9140625 C-89.08848562 8.59310526 -78.62032393 -2.83872876 -62.83984375 -9.59375 C-40.66238988 -17.39461314 -18.76819048 -14.1549406 0 0 Z " fill="#F18020" transform="translate(177.375,80.8125)"/>
<path d="M0 0 C0.68964844 0.15855469 1.37929687 0.31710938 2.08984375 0.48046875 C5.27154654 1.04847744 8.33378142 1.18393896 11.5625 1.3125 C25.38967804 2.27953646 37.05815877 7.57547579 46.75 17.5625 C55.88727121 28.26099561 59.17935532 39.18662032 59.1875 53 C59.19974609 54.093125 59.21199219 55.18625 59.22460938 56.3125 C59.22654297 57.364375 59.22847656 58.41625 59.23046875 59.5 C59.23457764 60.4590625 59.23868652 61.418125 59.24291992 62.40625 C59 65 59 65 57 69 C30.6 69 4.2 69 -23 69 C-22.34 66.03 -21.68 63.06 -21 60 C-20.40203776 55.24411427 -20.24630169 52.10699439 -23 48.0625 C-23.99 47.0415625 -23.99 47.0415625 -25 46 C-25 45.34 -25 44.68 -25 44 C-31.28555035 42.90105756 -37.48031392 42.79762003 -43.8515625 42.71875 C-45.00815872 42.70070312 -46.16475494 42.68265625 -47.35639954 42.6640625 C-49.8317189 42.62570388 -52.30706791 42.58922001 -54.78244019 42.55444336 C-61.22361355 42.46318151 -67.66452138 42.35585034 -74.10546875 42.25 C-75.38170609 42.22933472 -76.65794342 42.20866943 -77.97285461 42.18737793 C-88.17272373 42.02003476 -98.37138024 41.82244761 -108.5692749 41.56030273 C-110.14251271 41.52024297 -111.71579737 41.48198133 -113.28912354 41.44555664 C-115.431186 41.39556309 -117.57299126 41.33946938 -119.71484375 41.28125 C-120.89167725 41.25095703 -122.06851074 41.22066406 -123.28100586 41.18945312 C-126 41 -126 41 -128 40 C-127.67 39.01 -127.34 38.02 -127 37 C-125.78192657 36.98604691 -124.56385315 36.97209381 -123.30886841 36.9577179 C-111.80352212 36.82274724 -100.29877778 36.66215011 -88.79413033 36.476758 C-82.88008906 36.38227167 -76.96620268 36.29667211 -71.05175781 36.23168945 C-65.33897379 36.16859029 -59.62699021 36.08174572 -53.91479111 35.97875023 C-51.74054721 35.94365936 -49.56614998 35.91698131 -47.39169693 35.89904213 C-44.33467717 35.87235353 -41.27958157 35.81518128 -38.22314453 35.7512207 C-37.33337418 35.75049561 -36.44360382 35.74977051 -35.52687073 35.74902344 C-26.84401642 35.50597849 -19.04358232 31.80036129 -12.65625 25.91015625 C-6.16942477 18.42888847 -2.68394425 9.40214012 0 0 Z " fill="#F8B043" transform="translate(197,116)"/>
<path d="M0 0 C1.65 0.33 3.3 0.66 5 1 C4.71515154 2.73030291 4.42180062 4.45920714 4.125 6.1875 C3.88136719 7.63189453 3.88136719 7.63189453 3.6328125 9.10546875 C3 12 3 12 1.96875 14.5 C0.870946 17.33304258 0.59359888 19.78854888 0.375 22.8125 C0.30023438 23.78832031 0.22546875 24.76414063 0.1484375 25.76953125 C0.07496094 26.87361328 0.07496094 26.87361328 0 28 C0.66 28 1.32 28 2 28 C3.68816933 29.64488294 5.35353315 31.31337542 7 33 C10.3282873 35.2188582 11.84419677 35.35440992 15.76171875 35.6328125 C16.87998047 35.71660156 17.99824219 35.80039063 19.15039062 35.88671875 C20.31763672 35.96535156 21.48488281 36.04398438 22.6875 36.125 C23.86634766 36.21136719 25.04519531 36.29773438 26.25976562 36.38671875 C29.1727056 36.59899778 32.08598705 36.8030944 35 37 C35 38.32 35 39.64 35 41 C34.31486328 41.0501123 33.62972656 41.10022461 32.92382812 41.15185547 C29.78197236 41.38574446 26.64103087 41.63029178 23.5 41.875 C22.42234375 41.95363281 21.3446875 42.03226563 20.234375 42.11328125 C8.46886199 43.04591338 -0.79249942 44.82691111 -9 54 C-9.495 54.99 -9.495 54.99 -10 56 C-10.66 56 -11.32 56 -12 56 C-14.03165952 60.33420699 -14.52060632 64.28596212 -15 69 C-17.64 69 -20.28 69 -23 69 C-22.855625 68.45472656 -22.71125 67.90945312 -22.5625 67.34765625 C-21.23580344 61.95795147 -20.07366954 56.54721145 -21 51 C-22.85716187 48.09190457 -22.85716187 48.09190457 -25 46 C-25 45.34 -25 44.68 -25 44 C-31.28555035 42.90105756 -37.48031392 42.79762003 -43.8515625 42.71875 C-45.00815872 42.70070312 -46.16475494 42.68265625 -47.35639954 42.6640625 C-49.8317189 42.62570388 -52.30706791 42.58922001 -54.78244019 42.55444336 C-61.22361355 42.46318151 -67.66452138 42.35585034 -74.10546875 42.25 C-75.38170609 42.22933472 -76.65794342 42.20866943 -77.97285461 42.18737793 C-88.17272373 42.02003476 -98.37138024 41.82244761 -108.5692749 41.56030273 C-110.14251271 41.52024297 -111.71579737 41.48198133 -113.28912354 41.44555664 C-115.431186 41.39556309 -117.57299126 41.33946938 -119.71484375 41.28125 C-120.89167725 41.25095703 -122.06851074 41.22066406 -123.28100586 41.18945312 C-126 41 -126 41 -128 40 C-127.67 39.01 -127.34 38.02 -127 37 C-125.78192657 36.98604691 -124.56385315 36.97209381 -123.30886841 36.9577179 C-111.80352212 36.82274724 -100.29877778 36.66215011 -88.79413033 36.476758 C-82.88008906 36.38227167 -76.96620268 36.29667211 -71.05175781 36.23168945 C-65.33897379 36.16859029 -59.62699021 36.08174572 -53.91479111 35.97875023 C-51.74054721 35.94365936 -49.56614998 35.91698131 -47.39169693 35.89904213 C-44.33467717 35.87235353 -41.27958157 35.81518128 -38.22314453 35.7512207 C-37.33337418 35.75049561 -36.44360382 35.74977051 -35.52687073 35.74902344 C-26.84401642 35.50597849 -19.04358232 31.80036129 -12.65625 25.91015625 C-6.16942477 18.42888847 -2.68394425 9.40214012 0 0 Z " fill="#FDFBF4" transform="translate(197,116)"/>
<path d="M0 0 C13.2 0 26.4 0 40 0 C40 0.33 40 0.66 40 1 C33.07 1 26.14 1 19 1 C19 1.66 19 2.32 19 3 C20.29804565 2.99214478 20.29804565 2.99214478 21.62231445 2.98413086 C39.65938192 2.89113808 57.69603926 2.94031407 75.73080444 3.26345825 C77.66124579 3.29616932 79.5917812 3.32373181 81.52236938 3.34616089 C84.23674398 3.37915716 86.95010257 3.43116409 89.6640625 3.48828125 C90.48014481 3.49467621 91.29622711 3.50107117 92.13703918 3.50765991 C94.39697266 3.56762695 94.39697266 3.56762695 98 4 C98.99 5.485 98.99 5.485 100 7 C99.28251587 6.83890747 98.56503174 6.67781494 97.82580566 6.51184082 C95.08527021 6.01544507 92.56852546 5.84970402 89.78710938 5.81054688 C88.76451523 5.79378906 87.74192108 5.77703125 86.68833923 5.75976562 C85.58462479 5.74623047 84.48091034 5.73269531 83.34375 5.71875 C82.18432388 5.70070312 81.02489777 5.68265625 79.83033752 5.6640625 C77.34306639 5.62563386 74.85576445 5.58915869 72.36843872 5.55444336 C65.90040677 5.46341403 59.43264643 5.35589918 52.96484375 5.25 C51.68242294 5.22933472 50.40000214 5.20866943 49.07872009 5.18737793 C38.86097017 5.02059016 28.64446267 4.82316299 18.42871094 4.56030273 C16.85632796 4.52023065 15.28389774 4.48197006 13.71142578 4.44555664 C11.56918035 4.39556016 9.42719187 4.33946641 7.28515625 4.28125 C6.10832275 4.25095703 4.93148926 4.22066406 3.71899414 4.18945312 C1 4 1 4 -1 3 C-0.67 2.01 -0.34 1.02 0 0 Z " fill="#FDEDD1" transform="translate(70,153)"/>
<path d="M0 0 C12.39616523 0.21525995 24.79210312 0.44057817 37.18785191 0.67867851 C42.94392494 0.78892758 48.70001865 0.89573323 54.45629883 0.99462891 C60.01316973 1.09022605 65.56980202 1.19492131 71.12638664 1.3058815 C73.24455752 1.34658864 75.36279364 1.3840374 77.48108101 1.41814804 C80.45190071 1.46654794 83.42227562 1.52661104 86.39282227 1.58935547 C87.70157822 1.60662186 87.70157822 1.60662186 89.03677368 1.62423706 C94.01711285 1.74352442 98.3367313 2.17087999 103 4 C103.495 5.485 103.495 5.485 104 7 C103.34 7 102.68 7 102 7 C102 6.34 102 5.68 102 5 C101.28972656 5.01160156 100.57945312 5.02320313 99.84765625 5.03515625 C98.92855469 5.04417969 98.00945312 5.05320313 97.0625 5.0625 C95.68771484 5.07990234 95.68771484 5.07990234 94.28515625 5.09765625 C92 5 92 5 91 4 C88.24167843 3.89076887 85.50747561 3.84576917 82.74829102 3.84228516 C81.88328979 3.83720444 81.01828857 3.83212372 80.1270752 3.82688904 C78.24238166 3.81616154 76.3576752 3.80755076 74.47296333 3.80076981 C71.49402731 3.78902355 68.51523909 3.76958284 65.53636169 3.74765015 C57.064574 3.68588387 48.59280074 3.63192363 40.12084961 3.59863281 C34.94543117 3.57774376 29.77028051 3.54248705 24.59501457 3.49787521 C22.61781901 3.48366825 20.64057606 3.47498225 18.66333199 3.47182083 C15.90230211 3.46693856 13.14198894 3.443851 10.38110352 3.41650391 C9.55764938 3.41951004 8.73419525 3.42251617 7.88578796 3.4256134 C5.61256409 3.39199829 5.61256409 3.39199829 2 3 C1.34 2.01 0.68 1.02 0 0 Z " fill="#E3924A" transform="translate(69,156)"/>
<path d="M0 0 C0.66 0.33 1.32 0.66 2 1 C0.26703814 3.19227989 -0.60159308 3.9403808 -3.41081238 4.36076355 C-4.83977592 4.3507708 -4.83977592 4.3507708 -6.29760742 4.34057617 C-7.37850143 4.34034958 -8.45939545 4.34012299 -9.57304382 4.33988953 C-11.32159416 4.31666374 -11.32159416 4.31666374 -13.10546875 4.29296875 C-14.29981033 4.28872391 -15.49415192 4.28447906 -16.72468567 4.28010559 C-20.54585144 4.26328959 -24.36649316 4.22563093 -28.1875 4.1875 C-30.77538302 4.17245699 -33.36327429 4.15876792 -35.95117188 4.14648438 C-42.30096058 4.11337645 -48.65044286 4.06314762 -55 4 C-55 3.67 -55 3.34 -55 3 C-54.05492584 2.98786972 -54.05492584 2.98786972 -53.09075928 2.97549438 C-46.53702504 2.88948059 -39.98359437 2.78997815 -33.43017578 2.68261719 C-30.98393855 2.64431866 -28.53764484 2.60946736 -26.09130859 2.578125 C-22.57629194 2.53249395 -19.06166445 2.47449543 -15.546875 2.4140625 C-14.4519574 2.40251129 -13.35703979 2.39096008 -12.22894287 2.37905884 C-10.69780853 2.3492543 -10.69780853 2.3492543 -9.13574219 2.31884766 C-8.23861511 2.30552399 -7.34148804 2.29220032 -6.41717529 2.2784729 C-3.86029498 1.98390515 -2.26768601 1.15340723 0 0 Z " fill="#FEE7CA" transform="translate(173,149)"/>
<path d="M0 0 C1.65 0.33 3.3 0.66 5 1 C4.71515154 2.73030291 4.42180062 4.45920714 4.125 6.1875 C3.96257812 7.15042969 3.80015625 8.11335938 3.6328125 9.10546875 C3.01960483 11.91032604 2.14333657 14.37224747 1 17 C0.67 17 0.34 17 0 17 C-0.042721 15.33388095 -0.04063832 13.66617115 0 12 C0.33 11.67 0.66 11.34 1 11 C1.36760731 8.67182036 1.70241581 6.3381615 2 4 C1.34 4 0.68 4 0 4 C0 5.98 0 7.96 0 10 C-0.99 10 -1.98 10 -3 10 C-2.01 6.7 -1.02 3.4 0 0 Z " fill="#FDF2E0" transform="translate(197,116)"/>
<path d="M0 0 C2.68777802 -0.0544207 5.37443212 -0.09387266 8.0625 -0.125 C8.81466797 -0.14175781 9.56683594 -0.15851563 10.34179688 -0.17578125 C15.27302371 -0.21847585 19.3842507 0.18731302 24 2 C24.33 2.99 24.66 3.98 25 5 C24.34 5 23.68 5 23 5 C23 4.34 23 3.68 23 3 C22.28972656 3.01160156 21.57945312 3.02320313 20.84765625 3.03515625 C19.92855469 3.04417969 19.00945312 3.05320313 18.0625 3.0625 C17.14597656 3.07410156 16.22945312 3.08570313 15.28515625 3.09765625 C13 3 13 3 12 2 C9.98405418 1.76572222 7.961526 1.58663876 5.9375 1.4375 C4.83277344 1.35371094 3.72804687 1.26992187 2.58984375 1.18359375 C1.73519531 1.12300781 0.88054687 1.06242188 0 1 C0 0.67 0 0.34 0 0 Z " fill="#EA9249" transform="translate(148,158)"/>
<path d="M0 0 C0 0.99 0 1.98 0 3 C-0.99 3.33 -1.98 3.66 -3 4 C-3.12375 4.763125 -3.2475 5.52625 -3.375 6.3125 C-4 9 -4 9 -6 12 C-6.99 12 -7.98 12 -9 12 C-8.67 10.68 -8.34 9.36 -8 8 C-7.34 8 -6.68 8 -6 8 C-5.7525 7.236875 -5.505 6.47375 -5.25 5.6875 C-3.89004442 2.7635955 -2.68414174 1.69995644 0 0 Z " fill="#F4B863" transform="translate(193,164)"/>
<path d="M0 0 C1.66623639 0.03786901 3.33397597 0.04627845 5 0 C1.57905758 2.28062828 0.31812778 2.21925007 -3.6875 2.125 C-5.17830078 2.09792969 -5.17830078 2.09792969 -6.69921875 2.0703125 C-7.45847656 2.04710937 -8.21773437 2.02390625 -9 2 C-9 1.34 -9 0.68 -9 0 C-5.54233616 -0.86441596 -3.40007803 -0.95627195 0 0 Z " fill="#E88533" transform="translate(168,149)"/>
<path d="M0 0 C2 1.4375 2 1.4375 4 4 C4.35442445 7.02824418 4.23347235 9.96485939 4 13 C3.67 13 3.34 13 3 13 C2.87625 11.865625 2.7525 10.73125 2.625 9.5625 C2.41875 8.386875 2.2125 7.21125 2 6 C1.34 5.67 0.68 5.34 0 5 C0 3.35 0 1.7 0 0 Z " fill="#E49C5D" transform="translate(173,163)"/>
<path d="M0 0 C0.33 0 0.66 0 1 0 C1 2.31 1 4.62 1 7 C-0.65 7.66 -2.3 8.32 -4 9 C-2.68 6.03 -1.36 3.06 0 0 Z " fill="#FEE4C7" transform="translate(192,129)"/>
<path d="M0 0 C1.00000429 4.00001715 0.80688405 6.05523353 0 10 C-0.99 10 -1.98 10 -3 10 C-2.01 6.7 -1.02 3.4 0 0 Z " fill="#FDEACD" transform="translate(197,116)"/>
</svg>
